<mxfile host="app.diagrams.net" modified="2023-09-13T05:40:46.831Z" agent="Mozilla/5.0 (Windows NT 10.0; Win64; x64) AppleWebKit/537.36 (KHTML, like Gecko) Chrome/116.0.0.0 Safari/537.36" version="21.7.4" etag="l2aferC0qBFkGHzfOD21" type="github">
  <diagram name="第 1 页" id="g-J7haauCMhBv2Hcuovk">
    <mxGraphModel>
      <root>
        <mxCell id="0" />
        <mxCell id="1" parent="0" />
      </root>
    </mxGraphModel>
  </diagram>
</mxfile>
